<?xml version="1.0" encoding="utf-8"?><svg viewBox="0 0 60 60" xmlns="http://www.w3.org/2000/svg" xmlns:xlink="http://www.w3.org/1999/xlink"><style>:root>svg{display:none}:root>svg:target{display:block}</style><svg fill="none" viewBox="0 0 28 28" id="arrowLeft" xmlns="http://www.w3.org/2000/svg"><path d="M15.531 18.594 10.937 14l4.594-4.594" stroke="#4092F1" stroke-width="2" stroke-linecap="round" stroke-linejoin="round"/></svg><svg fill="none" viewBox="0 0 28 28" id="arrowRight" xmlns="http://www.w3.org/2000/svg"><path d="M12.469 9.406 17.063 14l-4.594 4.594" stroke="#4092F1" stroke-width="2" stroke-linecap="round" stroke-linejoin="round"/></svg><svg fill="none" viewBox="0 0 20 20" id="cart" xmlns="http://www.w3.org/2000/svg"><path fill-rule="evenodd" clip-rule="evenodd" d="M.431.908a.79.79 0 0 0-.39.39c-.122.326.035.749.338.907.053.028.658.154 1.343.28a34.14 34.14 0 0 1 1.261.247c.01.008.491 2.429 1.072 5.378.58 2.95 1.082 5.435 1.115 5.522a.704.704 0 0 0 .518.421c.127.027 1.843.036 5.317.03l5.128-.01.158-.085c.304-.163.267-.037 1.204-4.109.95-4.123.93-4.013.721-4.278a1 1 0 0 0-.275-.224l-.165-.085H4.972l-.327-1.675c-.18-.922-.36-1.746-.4-1.833a.716.716 0 0 0-.46-.382C3.559 1.338.807.837.687.838a.776.776 0 0 0-.255.07ZM16.71 6.799c0 .026-.3 1.345-.666 2.93l-.665 2.883-4.478.01-4.479.01-.04-.197-.562-2.856-.54-2.742-.02-.084h5.725c4.556 0 5.726.01 5.725.046ZM6.275 15.253a2.41 2.41 0 0 0-1.658 3.113 2.397 2.397 0 0 0 4 .895c.412-.427.63-.932.662-1.543.088-1.632-1.431-2.879-3.004-2.465Zm7.178-.017c-.467.114-.966.432-1.292.824-.183.219-.42.701-.489.99a3.069 3.069 0 0 0-.048.56c.002.658.236 1.205.723 1.69.744.741 1.802.912 2.746.443a2.405 2.405 0 0 0 1.316-2.426c-.063-.582-.261-.984-.704-1.43-.354-.356-.687-.55-1.12-.652-.299-.07-.84-.07-1.133.001Zm-6.085 1.521c.314.202.464.473.466.84.002.83-1.008 1.263-1.6.687a.84.84 0 0 1-.293-.625.918.918 0 0 1 .532-.936c.258-.124.673-.108.895.034Zm7.05-.05c.441.202.666.743.506 1.218-.069.201-.286.43-.507.534-.508.238-1.124-.038-1.305-.586-.153-.462.088-.978.55-1.18.175-.076.574-.069.756.014Z" fill="#4092F1"/></svg><svg fill="none" viewBox="0 0 16 16" id="close" xmlns="http://www.w3.org/2000/svg"><path d="m3 3 10 10m0-10L3 13" stroke="#6A727B" stroke-width="2" stroke-linecap="round"/></svg><svg fill="none" viewBox="0 0 14 14" id="comment" xmlns="http://www.w3.org/2000/svg"><path fill-rule="evenodd" clip-rule="evenodd" d="M2.825.023A3.21 3.21 0 0 0 .03 2.858c-.04.355-.038 5.381.003 5.75a3.26 3.26 0 0 0 .988 1.996c.364.338.896.634 1.34.745l.2.05.008 1.099.009 1.098.09.13c.177.252.533.351.787.22.056-.03.924-.603 1.928-1.274l1.826-1.22h1.97c1.862 0 1.984-.003 2.265-.06a3.176 3.176 0 0 0 2.525-2.785c.041-.368.043-5.394.002-5.75A3.214 3.214 0 0 0 12.377.42a3.71 3.71 0 0 0-.874-.345C11.246.01 11.224.01 7.134.004c-2.26-.003-4.2.006-4.309.019Z" fill="#DAE8FA"/></svg><svg fill="none" viewBox="0 0 16 17" id="comparison" xmlns="http://www.w3.org/2000/svg"><path d="M2 9.143c0-.382.311-.692.696-.692.384 0 .695.31.695.692v4.667a.694.694 0 0 1-.695.692A.694.694 0 0 1 2 13.81V9.143ZM7.304 3.195c0-.383.312-.693.696-.693.384 0 .696.31.696.693V13.81a.694.694 0 0 1-.696.692.694.694 0 0 1-.696-.692V3.195ZM12.609 6.374c0-.382.311-.692.695-.692.384 0 .696.31.696.692v7.436a.694.694 0 0 1-.696.692.694.694 0 0 1-.695-.692V6.374Z" fill="#1A1A1A"/></svg><svg fill="none" viewBox="0 0 60 60" id="file" xmlns="http://www.w3.org/2000/svg"><path fill-rule="evenodd" clip-rule="evenodd" d="M12.59.081C10.34.556 8.521 2.185 7.767 4.4l-.267.785V54.835l.264.776c.663 1.945 2.142 3.448 4.052 4.118l.774.271h34.82l.774-.271c1.91-.67 3.39-2.173 4.052-4.118l.264-.776V15.866l-.3-.834a8.633 8.633 0 0 0-.73-1.49c-.527-.805-11.89-11.762-12.947-12.485a8.026 8.026 0 0 0-1.466-.763L36.305.02 24.679.002c-6.395-.01-11.834.026-12.089.08Zm21.946 8.891.033 5.49.377.777c.44.905 1.067 1.526 1.981 1.96l.65.31 5.755.033 5.755.034v18.227c0 20.472.068 18.91-.864 19.857-.93.944.444.877-18.223.877-18.667 0-17.293.066-18.223-.877-.94-.955-.864 1.313-.864-25.65 0-26.969-.077-24.695.866-25.653.89-.902.23-.855 12.114-.866l10.61-.009.033 5.49Zm8.796 1.36c2.084 2 3.789 3.653 3.789 3.675 0 .021-1.975.04-4.388.04-3.834 0-4.41-.024-4.57-.185-.158-.161-.181-.726-.181-4.415V5.216l.78.74c.43.407 2.487 2.376 4.57 4.375ZM16.091 23.678c-.489.261-.898.954-.898 1.518 0 .583.409 1.259.922 1.525.45.232.656.236 13.538.236s13.088-.004 13.538-.236c.513-.266.922-.942.922-1.525 0-.582-.41-1.258-.922-1.524-.45-.233-.65-.236-13.562-.231-12.82.005-13.115.01-13.538.237Zm0 9.39c-.489.261-.898.954-.898 1.518 0 .583.409 1.26.922 1.525.45.233.656.236 13.538.236s13.088-.003 13.538-.236c.513-.266.922-.942.922-1.525 0-.582-.41-1.258-.922-1.524-.45-.233-.65-.236-13.562-.231-12.82.005-13.115.01-13.538.237Zm0 9.388c-.489.264-.898.958-.898 1.52 0 .587.409 1.26.93 1.529.448.232.623.239 5.137.207 4.514-.032 4.685-.041 4.994-.275.573-.435.783-.826.783-1.46 0-.635-.21-1.026-.783-1.46-.31-.234-.474-.243-5.025-.268-4.504-.026-4.724-.017-5.138.207Z" fill="#4092F1"/></svg><svg fill="none" viewBox="0 0 16 16" id="like" xmlns="http://www.w3.org/2000/svg"><path fill-rule="evenodd" clip-rule="evenodd" d="M4.113 2.043c-1.69.258-3.007 1.48-3.38 3.134-.09.4-.088 1.166.003 1.585.093.424.181.669.39 1.085.308.61.687 1.055 1.68 1.97 1.014.936 2.122 1.885 3.83 3.282.537.44 1.014.818 1.06.841.117.06.388.08.518.037.117-.038.236-.129 1.25-.957 2.16-1.766 3.954-3.348 4.617-4.07.397-.432.606-.724.808-1.131.19-.382.287-.657.377-1.07.083-.38.09-1.15.014-1.51-.266-1.252-1.052-2.268-2.178-2.814a4.174 4.174 0 0 0-3.49-.083c-.493.212-.84.453-1.332.921L8 3.53l-.308-.294c-.469-.447-.843-.701-1.349-.915a4.327 4.327 0 0 0-2.23-.278Zm1.077 1.27c.425.07.783.21 1.131.442.095.063.43.364.746.669.433.417.603.563.69.592.159.053.409.046.53-.015.055-.027.346-.287.646-.577.3-.29.631-.587.736-.66.253-.175.572-.317.91-.405.236-.062.337-.072.692-.072.36 0 .456.01.704.074 1.322.345 2.187 1.557 2.05 2.873a3.082 3.082 0 0 1-.595 1.504c-.29.383-1.138 1.197-2.274 2.181-1.093.947-3.108 2.62-3.156 2.62-.014 0-.352-.268-.751-.596-2.508-2.06-4.221-3.6-4.67-4.193-.51-.676-.717-1.5-.573-2.285C2.27 4.04 3.712 3.063 5.19 3.312Z" fill="#1A1A1A"/></svg><svg fill="none" viewBox="0 0 24 24" id="minus" xmlns="http://www.w3.org/2000/svg"><path fill-rule="evenodd" clip-rule="evenodd" d="M3 12.004a1 1 0 0 1 1-1h16a1 1 0 1 1 0 2H4a1 1 0 0 1-1-1Z" fill="#000"/></svg><svg fill="none" viewBox="0 0 24 24" id="plus" xmlns="http://www.w3.org/2000/svg"><path fill-rule="evenodd" clip-rule="evenodd" d="M3 12.004a1 1 0 0 1 1-1h16a1 1 0 1 1 0 2H4a1 1 0 0 1-1-1Z" fill="#000"/><path fill-rule="evenodd" clip-rule="evenodd" d="M12 21.004a1 1 0 0 1-1-1v-16a1 1 0 1 1 2 0v16a1 1 0 0 1-1 1Z" fill="#000"/></svg><svg fill="none" viewBox="0 0 16 16" id="successInput" xmlns="http://www.w3.org/2000/svg"><path d="m14 4-7.21 8L2 7" stroke="#64B847" stroke-width="2" stroke-linecap="round" stroke-linejoin="round"/></svg><svg fill="none" viewBox="0 0 20 21" id="viewFull" xmlns="http://www.w3.org/2000/svg"><path d="m6.279 12.967.61-.579.28.355a5.396 5.396 0 0 1-1.23-4.435c.39-2.309 2.318-4.153 4.644-4.435a5.404 5.404 0 0 1 6.042 6.038c-.283 2.325-2.128 4.252-4.438 4.642a5.404 5.404 0 0 1-4.437-1.229l.357.281-.582.608-3.531 3.53a.878.878 0 0 1-1.238 0 .877.877 0 0 1 0-1.238l3.523-3.538Zm4.986 0c2.069 0 3.74-1.67 3.74-3.737a3.733 3.733 0 0 0-3.74-3.738c-2.07 0-3.74 1.67-3.74 3.738a3.733 3.733 0 0 0 3.74 3.737Z" fill="#6A727B"/><path d="M11.667 7.58a.417.417 0 1 0-.834 0v3.334a.417.417 0 0 0 .834 0V7.581Z" fill="#6A727B"/><path d="M12.917 9.664a.417.417 0 1 0 0-.833H9.583a.417.417 0 0 0 0 .833h3.334Z" fill="#6A727B"/></svg></svg>